# xmcd
#
# Track frame offsets:
#	150
#	19355
#	40453
#	55675
#	84065
#	100141
#	125372
#	146848
#	162959
#	190065
#	208216
#	228184
#	243803
#	258674
#	277620
#	298324
#
# Disc length: 4281 seconds
#
# Revision: 1
# Processed by: cddbd v1.5.2PL0 Copyright (c) Steve Scherf et al.
# Submitted via: EasyCDDAExtractor 16.1.0.1
#
DISCID=df10b710
DTITLE=Chick Roberts - Blue Turning Gray
DYEAR=2004
DGENRE=Blues
TTITLE0=Young Fashioned Ways
TTITLE1=How Long, How Long Blues
TTITLE2=Mean Old Frisco
TTITLE3=Blue Turning Gray Over You
TTITLE4=Haunted House Blues
TTITLE5=Mississippi Delta Blues
TTITLE6=Better Off With the Blues
TTITLE7=My Jug and  I
TTITLE8=How Deep is the Ocean
TTITLE9=Shake That Thing
TTITLE10=Past 60 Blues
TTITLE11=Shake Rattle and Roll
TTITLE12=Downhearted Blues
TTITLE13=Who Will the Next Fool Be
TTITLE14=She Loves So Good
TTITLE15=Goin' Home Blues
EXTD=
EXTT0=
EXTT1=
EXTT2=
EXTT3=
EXTT4=
EXTT5=
EXTT6=
EXTT7=
EXTT8=
EXTT9=
EXTT10=
EXTT11=
EXTT12=
EXTT13=
EXTT14=
EXTT15=
PLAYORDER=
